<?xml version="1.0" standalone="no"?>
<!DOCTYPE svg PUBLIC "-//W3C//DTD SVG 20010904//EN"
 "http://www.w3.org/TR/2001/REC-SVG-20010904/DTD/svg10.dtd">
<svg version="1.0" xmlns="http://www.w3.org/2000/svg"
 width="700.000000pt" height="700.000000pt" viewBox="0 0 700.000000 700.000000"
 preserveAspectRatio="xMidYMid meet">
<metadata>
Created by potrace 1.14, written by Peter Selinger 2001-2017
</metadata>
<g transform="translate(0.000000,700.000000) scale(0.100000,-0.100000)"
fill="#000000" stroke="none">
<path d="M2665 5902 c-304 -35 -578 -319 -662 -686 -34 -150 -41 -353 -17
-498 96 -594 583 -931 1027 -712 66 32 170 109 213 156 150 167 264 444 268
655 1 44 9 32 13 -20 2 -23 10 -78 19 -122 62 -311 229 -553 460 -668 281
-140 602 -58 813 207 75 94 170 283 188 376 2 8 12 56 22 105 29 136 23 383
-13 520 -42 160 -89 265 -171 380 -167 234 -428 348 -680 298 -38 -8 -112 -34
-162 -59 -75 -36 -108 -60 -176 -127 -94 -92 -128 -139 -185 -253 -59 -117
-106 -281 -114 -388 -3 -45 -18 -48 -19 -3 -1 66 -19 149 -55 256 -127 382
-443 621 -769 583z"/>
<path d="M1598 4375 c-2 -2 -26 -5 -54 -9 -175 -20 -359 -147 -482 -331 -299
-447 -229 -1130 150 -1460 93 -82 225 -147 325 -160 320 -44 597 127 759 469
109 231 138 524 78 786 -9 36 -17 72 -19 81 -8 39 -61 160 -98 224 -141 246
-347 385 -590 398 -37 2 -68 3 -69 2z"/>
<path d="M5318 4375 c-2 -2 -23 -5 -49 -8 -331 -39 -622 -401 -666 -827 -31
-307 38 -599 193 -817 50 -70 158 -180 186 -189 10 -3 18 -10 18 -15 0 -5 5
-9 11 -9 6 0 23 -8 37 -18 15 -10 52 -28 82 -40 334 -130 688 34 873 405 188
377 152 886 -85 1208 -141 191 -323 297 -531 308 -37 2 -68 3 -69 2z"/>
<path d="M3345 3484 c-165 -35 -300 -128 -403 -278 -27 -39 -82 -134 -121
-210 -118 -228 -124 -234 -361 -336 -349 -150 -489 -246 -595 -406 -253 -381
-71 -928 369 -1104 172 -69 334 -72 596 -9 112 27 68 15 380 102 224 63 260
70 319 64 31 -4 155 -34 276 -68 503 -141 632 -162 813 -132 282 48 523 266
604 548 18 65 22 104 22 210 0 115 -3 139 -28 210 -35 100 -84 183 -156 259
-57 61 -166 146 -235 183 -108 58 -176 91 -235 117 -133 57 -250 119 -276 145
-36 35 -59 73 -136 222 -84 162 -136 239 -218 319 -83 82 -191 140 -307 166
-62 13 -239 12 -308 -2z"/>
</g>
</svg>
